HIERARCHY
ROOT Hips
{
  OFFSET 0.000000 95.000000 0.000000
  CHANNELS 6 Xposition Yposition Zposition Zrotation Xrotation Yrotation
  JOINT Spine
  {
    OFFSET 0.000000 10.000000 0.000000
    CHANNELS 3 Zrotation Xrotation Yrotation
    JOINT Spine1
    {
      OFFSET 0.000000 12.000000 0.000000
      CHANNELS 3 Zrotation Xrotation Yrotation
      JOINT Spine2
      {
        OFFSET 0.000000 12.000000 0.000000
        CHANNELS 3 Zrotation Xrotation Yrotation
        JOINT Neck
        {
          OFFSET 0.000000 10.000000 0.000000
          CHANNELS 3 Zrotation Xrotation Yrotation
          JOINT Head
          {
            OFFSET 0.000000 8.000000 0.000000
            CHANNELS 3 Zrotation Xrotation Yrotation
            End Site
            {
              OFFSET 0.000000 10.000000 0.000000
            }
          }
        }
        JOINT LeftShoulder
        {
          OFFSET 6.000000 8.000000 0.000000
          CHANNELS 3 Zrotation Xrotation Yrotation
          JOINT LeftArm
          {
            OFFSET 12.000000 0.000000 0.000000
            CHANNELS 3 Zrotation Xrotation Yrotation
            JOINT LeftForeArm
            {
              OFFSET 24.000000 0.000000 0.000000
              CHANNELS 3 Zrotation Xrotation Yrotation
              JOINT LeftHand
              {
                OFFSET 22.000000 0.000000 0.000000
                CHANNELS 3 Zrotation Xrotation Yrotation
                JOINT LeftHandThumb1
                {
                  OFFSET 1.800000 -1.400000 0.500000
                  CHANNELS 3 Zrotation Xrotation Yrotation
                  JOINT LeftHandThumb2
                  {
                    OFFSET 2.400000 0.000000 0.000000
                    CHANNELS 3 Zrotation Xrotation Yrotation
                    JOINT LeftHandThumb3
                    {
                      OFFSET 1.900000 0.000000 0.000000
                      CHANNELS 3 Zrotation Xrotation Yrotation
                      End Site
                      {
                        OFFSET 1.600000 0.000000 0.000000
                      }
                    }
                  }
                }
                JOINT LeftHandIndex1
                {
                  OFFSET 6.600000 1.200000 0.300000
                  CHANNELS 3 Zrotation Xrotation Yrotation
                  JOINT LeftHandIndex2
                  {
                    OFFSET 2.000000 0.000000 0.000000
                    CHANNELS 3 Zrotation Xrotation Yrotation
                    JOINT LeftHandIndex3
                    {
                      OFFSET 1.200000 0.000000 0.000000
                      CHANNELS 3 Zrotation Xrotation Yrotation
                      End Site
                      {
                        OFFSET 1.000000 0.000000 0.000000
                      }
                    }
                  }
                }
                JOINT LeftHandMiddle1
                {
                  OFFSET 7.200000 0.000000 0.300000
                  CHANNELS 3 Zrotation Xrotation Yrotation
                  JOINT LeftHandMiddle2
                  {
                    OFFSET 3.000000 0.000000 0.000000
                    CHANNELS 3 Zrotation Xrotation Yrotation
                    JOINT LeftHandMiddle3
                    {
                      OFFSET 2.000000 0.000000 0.000000
                      CHANNELS 3 Zrotation Xrotation Yrotation
                      End Site
                      {
                        OFFSET 1.600000 0.000000 0.000000
                      }
                    }
                  }
                }
                JOINT LeftHandRing1
                {
                  OFFSET 7.100000 -1.000000 0.400000
                  CHANNELS 3 Zrotation Xrotation Yrotation
                  JOINT LeftHandRing2
                  {
                    OFFSET 2.600000 0.000000 0.000000
                    CHANNELS 3 Zrotation Xrotation Yrotation
                    JOINT LeftHandRing3
                    {
                      OFFSET 1.600000 0.000000 0.000000
                      CHANNELS 3 Zrotation Xrotation Yrotation
                      End Site
                      {
                        OFFSET 1.300000 0.000000 0.000000
                      }
                    }
                  }
                }
                JOINT LeftHandPinky1
                {
                  OFFSET 6.500000 -2.000000 0.500000
                  CHANNELS 3 Zrotation Xrotation Yrotation
                  JOINT LeftHandPinky2
                  {
                    OFFSET 1.900000 0.000000 0.000000
                    CHANNELS 3 Zrotation Xrotation Yrotation
                    JOINT LeftHandPinky3
                    {
                      OFFSET 1.400000 0.000000 0.000000
                      CHANNELS 3 Zrotation Xrotation Yrotation
                      End Site
                      {
                        OFFSET 1.300000 0.000000 0.000000
                      }
                    }
                  }
                }
              }
            }
          }
        }
        JOINT RightShoulder
        {
          OFFSET -6.000000 8.000000 0.000000
          CHANNELS 3 Zrotation Xrotation Yrotation
          JOINT RightArm
          {
            OFFSET -12.000000 0.000000 0.000000
            CHANNELS 3 Zrotation Xrotation Yrotation
            JOINT RightForeArm
            {
              OFFSET -24.000000 0.000000 0.000000
              CHANNELS 3 Zrotation Xrotation Yrotation
              JOINT RightHand
              {
                OFFSET -22.000000 0.000000 0.000000
                CHANNELS 3 Zrotation Xrotation Yrotation
                JOINT RightHandThumb1
                {
                  OFFSET -1.800000 -1.400000 0.500000
                  CHANNELS 3 Zrotation Xrotation Yrotation
                  JOINT RightHandThumb2
                  {
                    OFFSET -2.400000 0.000000 0.000000
                    CHANNELS 3 Zrotation Xrotation Yrotation
                    JOINT RightHandThumb3
                    {
                      OFFSET -1.900000 0.000000 0.000000
                      CHANNELS 3 Zrotation Xrotation Yrotation
                      End Site
                      {
                        OFFSET -1.600000 0.000000 0.000000
                      }
                    }
                  }
                }
                JOINT RightHandIndex1
                {
                  OFFSET -6.600000 1.200000 0.300000
                  CHANNELS 3 Zrotation Xrotation Yrotation
                  JOINT RightHandIndex2
                  {
                    OFFSET -2.000000 0.000000 0.000000
                    CHANNELS 3 Zrotation Xrotation Yrotation
                    JOINT RightHandIndex3
                    {
                      OFFSET -1.200000 0.000000 0.000000
                      CHANNELS 3 Zrotation Xrotation Yrotation
                      End Site
                      {
                        OFFSET -1.000000 0.000000 0.000000
                      }
                    }
                  }
                }
                JOINT RightHandMiddle1
                {
                  OFFSET -7.200000 0.000000 0.300000
                  CHANNELS 3 Zrotation Xrotation Yrotation
                  JOINT RightHandMiddle2
                  {
                    OFFSET -3.000000 0.000000 0.000000
                    CHANNELS 3 Zrotation Xrotation Yrotation
                    JOINT RightHandMiddle3
                    {
                      OFFSET -2.000000 0.000000 0.000000
                      CHANNELS 3 Zrotation Xrotation Yrotation
                      End Site
                      {
                        OFFSET -1.600000 0.000000 0.000000
                      }
                    }
                  }
                }
                JOINT RightHandRing1
                {
                  OFFSET -7.100000 -1.000000 0.400000
                  CHANNELS 3 Zrotation Xrotation Yrotation
                  JOINT RightHandRing2
                  {
                    OFFSET -2.600000 0.000000 0.000000
                    CHANNELS 3 Zrotation Xrotation Yrotation
                    JOINT RightHandRing3
                    {
                      OFFSET -1.600000 0.000000 0.000000
                      CHANNELS 3 Zrotation Xrotation Yrotation
                      End Site
                      {
                        OFFSET -1.300000 0.000000 0.000000
                      }
                    }
                  }
                }
                JOINT RightHandPinky1
                {
                  OFFSET -6.500000 -2.000000 0.500000
                  CHANNELS 3 Zrotation Xrotation Yrotation
                  JOINT RightHandPinky2
                  {
                    OFFSET -1.900000 0.000000 0.000000
                    CHANNELS 3 Zrotation Xrotation Yrotation
                    JOINT RightHandPinky3
                    {
                      OFFSET -1.400000 0.000000 0.000000
                      CHANNELS 3 Zrotation Xrotation Yrotation
                      End Site
                      {
                        OFFSET -1.300000 0.000000 0.000000
                      }
                    }
                  }
                }
              }
            }
          }
        }
      }
    }
  }
  JOINT LeftUpLeg
  {
    OFFSET 10.000000 -5.000000 0.000000
    CHANNELS 3 Zrotation Xrotation Yrotation
    JOINT LeftLeg
    {
      OFFSET 0.000000 -42.000000 0.000000
      CHANNELS 3 Zrotation Xrotation Yrotation
      JOINT LeftFoot
      {
        OFFSET 0.000000 -42.000000 4.000000
        CHANNELS 3 Zrotation Xrotation Yrotation
        End Site
        {
          OFFSET 0.000000 0.000000 12.000000
        }
      }
    }
  }
  JOINT RightUpLeg
  {
    OFFSET -10.000000 -5.000000 0.000000
    CHANNELS 3 Zrotation Xrotation Yrotation
    JOINT RightLeg
    {
      OFFSET 0.000000 -42.000000 0.000000
      CHANNELS 3 Zrotation Xrotation Yrotation
      JOINT RightFoot
      {
        OFFSET 0.000000 -42.000000 4.000000
        CHANNELS 3 Zrotation Xrotation Yrotation
        End Site
        {
          OFFSET 0.000000 0.000000 12.000000
        }
      }
    }
  }
}
MOTION
Frames: 4
Frame Time: 0.033333
0.0000 95.0000 0.0000 0.0000 0.0000 0.0000 0.0000 0.0000 0.0000 0.0000 0.0000 0.0000 0.0000 0.0000 0.0000 0.0000 0.0000 0.0000 0.0000 0.0000 0.0000 0.0000 0.0000 0.0000 -78.6076 4.5365 5.5404 -11.8286 9.0862 -12.4818 150.2027 78.7771 17.3034 59.8440 -12.8379 -2.0054 13.9157 0.0000 0.0000 26.3982 0.0000 0.0000 3.5748 1.5568 -8.0400 26.0927 0.0000 0.0000 6.0671 0.0000 0.0000 16.3411 1.4102 -14.5703 11.8537 0.0000 0.0000 11.6862 0.0000 0.0000 25.2661 -0.4502 -11.7247 27.0680 0.0000 0.0000 2.4143 0.0000 0.0000 36.0921 -2.4643 -8.0850 30.0854 0.0000 0.0000 6.8504 0.0000 0.0000 0.0000 0.0000 0.0000 91.6264 -2.8352 2.7559 -4.9269 9.2442 7.9807 152.1450 22.1873 -166.3259 -52.5298 -12.3207 5.5318 17.0161 0.0000 0.0000 5.0982 0.0000 0.0000 31.3877 0.0488 14.1670 110.0000 0.0000 0.0000 29.3079 0.0000 0.0000 22.8343 -2.3552 16.3962 110.0000 0.0000 0.0000 26.8043 0.0000 0.0000 12.9568 -3.4688 16.3021 110.0000 0.0000 0.0000 21.3667 0.0000 0.0000 1.2145 -4.7163 15.1339 110.0000 0.0000 0.0000 13.4894 0.0000 0.0000 0.0000 0.0000 0.0000 0.0000 0.0000 0.0000 0.0000 0.0000 0.0000 0.0000 0.0000 0.0000 0.0000 0.0000 0.0000 0.0000 0.0000 0.0000
0.0000 95.0000 0.0000 0.0000 0.0000 0.0000 0.0000 0.0000 0.0000 0.0000 0.0000 0.0000 0.0000 0.0000 0.0000 0.0000 0.0000 0.0000 0.0000 0.0000 0.0000 0.0000 0.0000 0.0000 -78.6489 4.4530 5.4344 -11.7172 9.0193 -12.3800 149.8830 78.7831 16.9963 59.8440 -12.8379 -2.0054 13.9157 0.0000 0.0000 26.3982 0.0000 0.0000 3.5748 1.5568 -8.0400 26.0927 0.0000 0.0000 6.0671 0.0000 0.0000 16.3411 1.4102 -14.5703 11.8537 0.0000 0.0000 11.6862 0.0000 0.0000 25.2661 -0.4502 -11.7247 27.0680 0.0000 0.0000 2.4143 0.0000 0.0000 36.0921 -2.4643 -8.0850 30.0854 0.0000 0.0000 6.8504 0.0000 0.0000 0.0000 0.0000 0.0000 91.5876 -2.5124 2.4437 -4.4732 9.4573 8.2911 152.4955 22.0102 -166.1667 -52.5298 -12.3207 5.5318 17.0161 0.0000 0.0000 5.0982 0.0000 0.0000 31.3877 0.0488 14.1670 110.0000 0.0000 0.0000 29.3079 0.0000 0.0000 22.8343 -2.3552 16.3962 110.0000 0.0000 0.0000 26.8043 0.0000 0.0000 12.9568 -3.4688 16.3021 110.0000 0.0000 0.0000 21.3667 0.0000 0.0000 1.2145 -4.7163 15.1339 110.0000 0.0000 0.0000 13.4894 0.0000 0.0000 0.0000 0.0000 0.0000 0.0000 0.0000 0.0000 0.0000 0.0000 0.0000 0.0000 0.0000 0.0000 0.0000 0.0000 0.0000 0.0000 0.0000 0.0000
0.0000 95.0000 0.0000 0.0000 0.0000 0.0000 0.0000 0.0000 0.0000 0.0000 0.0000 0.0000 0.0000 0.0000 0.0000 0.0000 0.0000 0.0000 0.0000 0.0000 0.0000 0.0000 0.0000 0.0000 -78.6970 4.0561 4.9460 -11.4939 8.6215 -11.8491 149.3046 78.8330 16.4007 59.8440 -12.8379 -2.0054 13.9157 0.0000 0.0000 26.3982 0.0000 0.0000 3.5748 1.5568 -8.0400 26.0927 0.0000 0.0000 6.0671 0.0000 0.0000 16.3411 1.4102 -14.5703 11.8537 0.0000 0.0000 11.6862 0.0000 0.0000 25.2661 -0.4502 -11.7247 27.0680 0.0000 0.0000 2.4143 0.0000 0.0000 36.0921 -2.4643 -8.0850 30.0854 0.0000 0.0000 6.8504 0.0000 0.0000 0.0000 0.0000 0.0000 91.4808 -2.6747 2.6065 -4.5131 9.6253 8.4345 152.4071 22.3636 -166.5114 -52.5298 -12.3207 5.5318 17.0161 0.0000 0.0000 5.0982 0.0000 0.0000 31.3877 0.0488 14.1670 110.0000 0.0000 0.0000 29.3079 0.0000 0.0000 22.8343 -2.3552 16.3962 110.0000 0.0000 0.0000 26.8043 0.0000 0.0000 12.9568 -3.4688 16.3021 110.0000 0.0000 0.0000 21.3667 0.0000 0.0000 1.2145 -4.7163 15.1339 110.0000 0.0000 0.0000 13.4894 0.0000 0.0000 0.0000 0.0000 0.0000 0.0000 0.0000 0.0000 0.0000 0.0000 0.0000 0.0000 0.0000 0.0000 0.0000 0.0000 0.0000 0.0000 0.0000 0.0000
0.0000 95.0000 0.0000 0.0000 0.0000 0.0000 0.0000 0.0000 0.0000 0.0000 0.0000 0.0000 0.0000 0.0000 0.0000 0.0000 0.0000 0.0000 0.0000 0.0000 0.0000 0.0000 0.0000 0.0000 -78.3169 4.1659 5.1143 -11.8995 8.6936 -12.0645 149.3333 78.8193 16.4415 59.8440 -12.8379 -2.0054 13.9157 0.0000 0.0000 26.3982 0.0000 0.0000 3.5748 1.5568 -8.0400 26.0927 0.0000 0.0000 6.0671 0.0000 0.0000 16.3411 1.4102 -14.5703 11.8537 0.0000 0.0000 11.6862 0.0000 0.0000 25.2661 -0.4502 -11.7247 27.0680 0.0000 0.0000 2.4143 0.0000 0.0000 36.0921 -2.4643 -8.0850 30.0854 0.0000 0.0000 6.8504 0.0000 0.0000 0.0000 0.0000 0.0000 91.5564 -2.4620 2.3960 -4.7769 9.7846 8.5348 152.1695 22.3591 -166.4973 -52.5298 -12.3207 5.5318 17.0161 0.0000 0.0000 5.0982 0.0000 0.0000 31.3877 0.0488 14.1670 110.0000 0.0000 0.0000 29.3079 0.0000 0.0000 22.8343 -2.3552 16.3962 110.0000 0.0000 0.0000 26.8043 0.0000 0.0000 12.9568 -3.4688 16.3021 110.0000 0.0000 0.0000 21.3667 0.0000 0.0000 1.2145 -4.7163 15.1339 110.0000 0.0000 0.0000 13.4894 0.0000 0.0000 0.0000 0.0000 0.0000 0.0000 0.0000 0.0000 0.0000 0.0000 0.0000 0.0000 0.0000 0.0000 0.0000 0.0000 0.0000 0.0000 0.0000 0.0000
